<svg aria-hidden="true" style="position: absolute; width: 0; height: 0; overflow: hidden;" version="1.1" xmlns="http://www.w3.org/2000/svg" xmlns:xlink="http://www.w3.org/1999/xlink">
  <defs>
    <symbol id="icon-heart" viewBox="0 0 32 32">
      <path d="M15.991 7.561c-2.559-3.022-6.827-3.834-10.033-1.068s-3.658 7.393-1.14 10.665c1.613 2.096 5.743 5.983 8.505 8.506 0.918 0.839 1.376 1.258 1.926 1.426 0.473 0.145 1.012 0.145 1.485 0 0.55-0.168 1.008-0.588 1.926-1.426 2.761-2.524 6.892-6.41 8.505-8.506 2.518-3.272 2.122-7.928-1.14-10.665s-7.474-1.954-10.033 1.068z"></path>
    </symbol>
    <symbol id="icon-menu" viewBox="0 0 32 32">
      <path stroke-width="3" stroke-miterlimit="4" stroke-linecap="round" stroke-linejoin="round" d="M4 16h24"></path>
      <path stroke-width="3" stroke-miterlimit="4" stroke-linecap="round" stroke-linejoin="round" d="M4 8h24"></path>
      <path stroke-width="3" stroke-miterlimit="4" stroke-linecap="round" stroke-linejoin="round" d="M4 24h24"></path>
    </symbol>
    <symbol id="icon-close" viewBox="0 0 32 32">
      <path d="M7.564 6.751c-0.348 0.107-0.709 0.477-0.816 0.835-0.102 0.345-0.101 0.484 0.004 0.844 0.083 0.281 0.202 0.406 3.719 3.93l3.634 3.64-3.634 3.64c-3.517 3.524-3.636 3.649-3.719 3.93-0.105 0.36-0.106 0.5-0.004 0.844 0.11 0.371 0.468 0.728 0.838 0.838 0.345 0.102 0.484 0.101 0.844-0.004 0.281-0.083 0.406-0.202 3.93-3.719l3.64-3.634 3.64 3.634c3.524 3.517 3.649 3.636 3.93 3.719 0.36 0.105 0.5 0.106 0.844 0.004 0.371-0.11 0.728-0.468 0.838-0.838 0.102-0.345 0.101-0.484-0.004-0.844-0.083-0.281-0.202-0.406-3.719-3.93l-3.634-3.64 3.634-3.64c3.517-3.524 3.636-3.649 3.719-3.93 0.105-0.36 0.106-0.5 0.004-0.844-0.137-0.395-0.443-0.701-0.829-0.835l-0.009-0.003c-0.345-0.102-0.484-0.101-0.844 0.004-0.281 0.083-0.406 0.202-3.93 3.719l-3.64 3.634-3.64-3.634c-3.524-3.517-3.649-3.636-3.93-3.719-0.348-0.101-0.536-0.102-0.867 0z"></path>
    </symbol>
    <symbol id="icon-slider-left" viewBox="0 0 32 32">
      <path d="M14.133 16.947c-0.125-0.124-0.224-0.271-0.292-0.434s-0.103-0.337-0.103-0.513 0.035-0.35 0.103-0.513c0.068-0.163 0.167-0.31 0.292-0.434l6.12-6.107c0.125-0.124 0.224-0.271 0.292-0.434s0.103-0.337 0.103-0.513-0.035-0.35-0.103-0.513c-0.068-0.162-0.167-0.31-0.292-0.434-0.25-0.248-0.588-0.388-0.94-0.388s-0.69 0.139-0.94 0.388l-6.12 6.12c-0.749 0.75-1.17 1.767-1.17 2.827s0.421 2.077 1.17 2.827l6.12 6.12c0.248 0.246 0.583 0.385 0.933 0.387 0.175 0.001 0.349-0.033 0.512-0.099s0.31-0.164 0.435-0.288c0.125-0.124 0.224-0.271 0.292-0.434s0.103-0.337 0.103-0.513-0.035-0.35-0.103-0.513c-0.068-0.163-0.167-0.31-0.292-0.434l-6.12-6.107z"></path>
    </symbol>
    <symbol id="icon-slider-right" viewBox="0 0 32 32">
      <path d="M17.867 16.947c0.125-0.124 0.224-0.271 0.292-0.434s0.103-0.337 0.103-0.513-0.035-0.35-0.103-0.513c-0.068-0.163-0.167-0.31-0.292-0.434l-6.12-6.107c-0.125-0.124-0.224-0.271-0.292-0.434s-0.103-0.337-0.103-0.513c0-0.176 0.035-0.35 0.103-0.513s0.167-0.31 0.292-0.434c0.25-0.248 0.588-0.388 0.94-0.388s0.69 0.139 0.94 0.388l6.12 6.12c0.749 0.75 1.17 1.767 1.17 2.827s-0.421 2.077-1.17 2.827l-6.12 6.12c-0.248 0.246-0.584 0.385-0.933 0.387-0.175 0.001-0.349-0.033-0.512-0.099s-0.31-0.164-0.435-0.288c-0.125-0.124-0.224-0.271-0.292-0.434s-0.103-0.337-0.103-0.513 0.035-0.35 0.103-0.513c0.068-0.163 0.167-0.31 0.292-0.434l6.12-6.107z"></path>
    </symbol>
    <symbol id="icon-search" viewBox="0 0 32 32">
      <path d="M13.141 2.324c-3.908 0.473-7.39 2.821-9.348 6.299-1.237 2.199-1.774 4.932-1.474 7.5 0.462 3.959 2.795 7.444 6.302 9.417 2.926 1.648 6.601 2.007 9.858 0.965 1.097-0.35 2.471-1.035 3.358-1.673l0.267-0.19 2.402 2.396c2.756 2.748 2.686 2.695 3.493 2.695 0.379 0 0.501-0.023 0.747-0.139 0.354-0.169 0.654-0.46 0.844-0.821 0.124-0.235 0.142-0.329 0.142-0.773 0-0.807 0.066-0.722-2.699-3.495l-2.393-2.4 0.19-0.267c0.377-0.523 0.949-1.545 1.223-2.18 0.704-1.628 1.038-3.237 1.038-4.992 0-4.066-1.92-7.774-5.268-10.169-1.623-1.163-3.655-1.938-5.703-2.178-0.823-0.096-2.172-0.094-2.981 0.004zM15.947 5.872c3.484 0.484 6.471 3.172 7.335 6.606 0.343 1.364 0.343 3.013 0 4.377-0.782 3.104-3.323 5.644-6.427 6.427-1.364 0.343-3.013 0.343-4.377 0-3.451-0.869-6.069-3.783-6.615-7.362-0.084-0.549-0.084-1.957 0-2.507 0.64-4.196 4.007-7.307 8.244-7.62 0.382-0.028 1.371 0.014 1.84 0.078z"></path>
    </symbol>
    <symbol id="icon-cross" viewBox="0 0 32 32">
      <path d="M6.018 5.031c-0.507 0.213-0.784 0.494-0.992 1.008-0.107 0.265-0.126 0.393-0.11 0.702 0.043 0.777-0.156 0.544 4.432 5.14l4.117 4.119-4.117 4.119c-4.668 4.674-4.414 4.375-4.414 5.214 0 0.535 0.144 0.905 0.485 1.248 0.343 0.341 0.713 0.485 1.248 0.485 0.839 0 0.54 0.254 5.214-4.414l4.119-4.117 4.119 4.117c4.674 4.668 4.375 4.414 5.214 4.414 0.535 0 0.905-0.144 1.248-0.485 0.341-0.343 0.485-0.713 0.485-1.248 0-0.839 0.254-0.54-4.414-5.214l-4.117-4.119 4.117-4.119c4.668-4.674 4.414-4.375 4.414-5.214 0-0.535-0.144-0.905-0.485-1.248-0.343-0.341-0.713-0.485-1.248-0.485-0.839 0-0.54-0.254-5.214 4.414l-4.119 4.117-4.121-4.117c-4.615-4.612-4.364-4.395-5.159-4.428-0.325-0.012-0.457 0.009-0.702 0.112z"></path>
    </symbol>
    
    <symbol id="icon-user-1" viewBox="0 0 32 32">
      <path stroke-width="2.6667" stroke-miterlimit="4" stroke-linecap="round" stroke-linejoin="round" d="M16 20c-4.227 0-7.987 2.040-10.379 5.208-0.515 0.681-0.773 1.023-0.764 1.483 0.007 0.356 0.229 0.805 0.509 1.025 0.363 0.284 0.865 0.284 1.869 0.284h17.528c1.004 0 1.507 0 1.868-0.284 0.28-0.22 0.504-0.669 0.511-1.025 0.008-0.46-0.249-0.8-0.764-1.483-2.393-3.167-6.152-5.208-10.379-5.208zM16 16c3.314 0 6-2.686 6-6s-2.686-6-6-6v0c-3.314 0-6 2.686-6 6s2.686 6 6 6v0z"></path>
    </symbol>
    <symbol id="icon-user-2" viewBox="0 0 32 32">
      <path d="M14.96 21.367c-1.906 0.196-3.634 0.81-5.14 1.749l0.051-0.029c-0.856 0.532-1.855 1.357-2.436 2.013-0.391 0.441-1.195 1.468-1.195 1.525 0 0.023 4.392 0.041 9.76 0.041s9.76-0.019 9.76-0.041c0-0.057-0.804-1.084-1.195-1.525-0.491-0.524-1.019-1.001-1.585-1.431l-0.031-0.023c-1.452-1.093-3.28-1.869-5.136-2.181-0.489-0.083-2.383-0.148-2.853-0.099z"></path>
    </symbol>
    <symbol id="icon-user-3" viewBox="0 0 32 32">
      <path d="M14.96 21.367c-1.831 0.189-3.568 0.777-5.089 1.72-0.856 0.532-1.855 1.357-2.436 2.013-0.391 0.441-1.195 1.468-1.195 1.525 0 0.023 4.392 0.041 9.76 0.041s9.76-0.019 9.76-0.041c0-0.057-0.804-1.084-1.195-1.525-0.365-0.412-1.040-1.020-1.616-1.453-1.452-1.093-3.28-1.869-5.136-2.181-0.489-0.083-2.383-0.148-2.853-0.099z"></path>
    </symbol>
  </defs>
</svg>
