<svg aria-hidden="true" style="position: absolute; width: 0; height: 0; overflow: hidden;" version="1.1" xmlns="http://www.w3.org/2000/svg" xmlns:xlink="http://www.w3.org/1999/xlink">
  <defs>
    <symbol id="icon-heart" viewBox="0 0 32 32">
      <path d="M15.99 7.56c-2.559-3.021-6.826-3.834-10.031-1.067-3.208 2.767-3.659 7.393-1.141 10.666 1.614 2.095 5.743 5.983 8.505 8.506 0.918 0.839 1.376 1.258 1.926 1.426 0.473 0.145 1.011 0.145 1.485 0 0.55-0.167 1.009-0.587 1.926-1.426 2.762-2.524 6.893-6.41 8.505-8.506 2.518-3.272 2.122-7.928-1.141-10.666-3.26-2.738-7.473-1.953-10.031 1.067z"></path>
    </symbol>

    <symbol id="icon-menu" viewBox="0 0 32 32">
      <path d="M7.564 6.751c-0.348 0.107-0.709 0.477-0.816 0.835-0.102 0.345-0.101 0.484 0.004 0.844 0.083 0.281 0.202 0.406 3.719 3.93l3.634 3.64-3.634 3.64c-3.517 3.524-3.636 3.649-3.719 3.93-0.105 0.36-0.106 0.5-0.004 0.844 0.11 0.371 0.468 0.728 0.838 0.838 0.345 0.102 0.484 0.101 0.844-0.004 0.281-0.083 0.406-0.202 3.93-3.719l3.64-3.634 3.64 3.634c3.524 3.517 3.649 3.636 3.93 3.719 0.36 0.105 0.5 0.106 0.844 0.004 0.371-0.11 0.728-0.468 0.838-0.838 0.102-0.345 0.101-0.484-0.004-0.844-0.083-0.281-0.202-0.406-3.719-3.93l-3.634-3.64 3.634-3.64c3.517-3.524 3.636-3.649 3.719-3.93 0.105-0.36 0.106-0.5 0.004-0.844-0.137-0.395-0.443-0.701-0.829-0.835l-0.009-0.003c-0.345-0.102-0.484-0.101-0.844 0.004-0.281 0.083-0.406 0.202-3.93 3.719l-3.64 3.634-3.64-3.634c-3.524-3.517-3.649-3.636-3.93-3.719-0.348-0.101-0.536-0.102-0.867 0z"></path>
    </symbol>

    <symbol id="icon-close" viewBox="0 0 32 32">
      <path d="M7.564 6.751c-0.348 0.107-0.709 0.477-0.816 0.835-0.102 0.345-0.101 0.484 0.004 0.844 0.083 0.281 0.202 0.406 3.719 3.93l3.634 3.64-3.634 3.64c-3.517 3.524-3.636 3.649-3.719 3.93-0.105 0.36-0.106 0.5-0.004 0.844 0.11 0.371 0.468 0.728 0.838 0.838 0.345 0.102 0.484 0.101 0.844-0.004 0.281-0.083 0.406-0.202 3.93-3.719l3.64-3.634 3.64 3.634c3.524 3.517 3.649 3.636 3.93 3.719 0.36 0.105 0.5 0.106 0.844 0.004 0.371-0.11 0.728-0.468 0.838-0.838 0.102-0.345 0.101-0.484-0.004-0.844-0.083-0.281-0.202-0.406-3.719-3.93l-3.634-3.64 3.634-3.64c3.517-3.524 3.636-3.649 3.719-3.93 0.105-0.36 0.106-0.5 0.004-0.844-0.137-0.395-0.443-0.701-0.829-0.835l-0.009-0.003c-0.345-0.102-0.484-0.101-0.844 0.004-0.281 0.083-0.406 0.202-3.93 3.719l-3.64 3.634-3.64-3.634c-3.524-3.517-3.649-3.636-3.93-3.719-0.348-0.101-0.536-0.102-0.867 0z"></path>
    </symbol>

    
    <symbol id="icon-user-021" viewBox="0 0 32 32">
      <path stroke-width="2.6667" stroke-miterlimit="4" stroke-linecap="round" stroke-linejoin="round" d="M16 20c-4.227 0-7.987 2.040-10.379 5.208-0.515 0.681-0.773 1.023-0.764 1.483 0.007 0.356 0.229 0.805 0.509 1.025 0.363 0.284 0.865 0.284 1.869 0.284h17.528c1.004 0 1.507 0 1.868-0.284 0.28-0.22 0.504-0.669 0.511-1.025 0.008-0.46-0.249-0.8-0.764-1.483-2.393-3.167-6.152-5.208-10.379-5.208zM16 16c3.314 0 6-2.686 6-6s-2.686-6-6-6v0c-3.314 0-6 2.686-6 6s2.686 6 6 6v0z"></path>
    </symbol>
    <symbol id="icon-user-02-1-converted1" viewBox="0 0 32 32">
      <path d="M14.96 21.367c-1.906 0.196-3.634 0.81-5.14 1.749l0.051-0.029c-0.856 0.532-1.855 1.357-2.436 2.013-0.391 0.441-1.195 1.468-1.195 1.525 0 0.023 4.392 0.041 9.76 0.041s9.76-0.019 9.76-0.041c0-0.057-0.804-1.084-1.195-1.525-0.491-0.524-1.019-1.001-1.585-1.431l-0.031-0.023c-1.452-1.093-3.28-1.869-5.136-2.181-0.489-0.083-2.383-0.148-2.853-0.099z"></path>
    </symbol>
    <symbol id="icon-user-02-1-converted" viewBox="0 0 32 32">
      <path d="M14.96 21.367c-1.831 0.189-3.568 0.777-5.089 1.72-0.856 0.532-1.855 1.357-2.436 2.013-0.391 0.441-1.195 1.468-1.195 1.525 0 0.023 4.392 0.041 9.76 0.041s9.76-0.019 9.76-0.041c0-0.057-0.804-1.084-1.195-1.525-0.365-0.412-1.040-1.020-1.616-1.453-1.452-1.093-3.28-1.869-5.136-2.181-0.489-0.083-2.383-0.148-2.853-0.099z"></path>
    </symbol>
  </defs>
</svg>
